<svg id="Layer_1" data-name="Layer 1" xmlns="http://www.w3.org/2000/svg" viewBox="0 0 97.83 19.53"><defs><style>.cls-1{fill:#f2f2f2;}</style></defs><path class="cls-1" d="M1.13,54.48V35H8v6.61h4.33V35h6.82V54.48H12.29v-6.8H8v6.8Z" transform="translate(-1.13 -34.95)"/><path class="cls-1" d="M22.45,54.48V35H35.63v5.36H29.54v1.81h5.53v5.13H29.54v1.87H35.8v5.36Z" transform="translate(-1.13 -34.95)"/><path class="cls-1" d="M38.26,54.48V35h7.09V48.18h6v6.3Z" transform="translate(-1.13 -34.95)"/><path class="cls-1" d="M53.11,54.48V35h9.37a8,8,0,0,1,5.71,2,7,7,0,0,1,2,5.12A6.24,6.24,0,0,1,68.24,47a6.65,6.65,0,0,1-4.8,1.58H60v5.89ZM60,43.67h1.2a2.25,2.25,0,0,0,1.58-.52,1.57,1.57,0,0,0,.47-1.21,1.48,1.48,0,0,0-.53-1.2,2.48,2.48,0,0,0-1.44-.43H60Z" transform="translate(-1.13 -34.95)"/><path class="cls-1" d="M72.05,54.48V35h8.81c2,0,4.19.23,6,2a6.47,6.47,0,0,1,1.84,4.8,5.28,5.28,0,0,1-1.08,3.48,4.67,4.67,0,0,1-2.7,1.56V47a2.71,2.71,0,0,1,1,.91l4.39,6.59H82.15l-2.81-5.71a3.5,3.5,0,0,1-.26-.62l-.12.06v6.27ZM79,43.64h.82a2.32,2.32,0,0,0,1.49-.44,1.5,1.5,0,0,0,.5-1.2,1.77,1.77,0,0,0-.38-1.17,1.54,1.54,0,0,0-1.2-.52H79Z" transform="translate(-1.13 -34.95)"/><rect class="cls-1" x="93.13" y="14.73" width="4.71" height="4.71"/></svg>